PathFileType	4	(X/Y/Z)	/Users/itak/Documents/Research/Walk-IL/dataset/trc/00451_00167.trc
DataRate	CameraRate	NumFrames	NumMarkers	Units	OrigDataRate	OrigDataStartFrame	OrigNumFrames
100.000000	100.000000	4	53	mm	100.000000	56	455
Frame#	Time	RPSI			LPSI			L3			STRN			T10			C7			CLAV			RBAK			LBAK			LSHO			LUPA			LAEL			LAOL			LWTS			LWPS			LFRA			LIFD			LHPS			LHTS			RSHO			RUPA			RAEL			RAOL			RWTS			RWPS			RFRA			RIFD			RHTS			RHPS			RBHD			LFHD			RFHD			LBHD			LHIP			RHIP			RASI			LASI			LKNE			LTHI			LANK			LTIP			LTOE			LMT1			LMT5			LHEE			RKNE			RTHI			RANK			RTIP			RTOE			RMT1			RMT5			RHEE			
		X1	Y1	Z1	X2	Y2	Z2	X3	Y3	Z3	X4	Y4	Z4	X5	Y5	Z5	X6	Y6	Z6	X7	Y7	Z7	X8	Y8	Z8	X9	Y9	Z9	X10	Y10	Z10	X11	Y11	Z11	X12	Y12	Z12	X13	Y13	Z13	X14	Y14	Z14	X15	Y15	Z15	X16	Y16	Z16	X17	Y17	Z17	X18	Y18	Z18	X19	Y19	Z19	X20	Y20	Z20	X21	Y21	Z21	X22	Y22	Z22	X23	Y23	Z23	X24	Y24	Z24	X25	Y25	Z25	X26	Y26	Z26	X27	Y27	Z27	X28	Y28	Z28	X29	Y29	Z29	X30	Y30	Z30	X31	Y31	Z31	X32	Y32	Z32	X33	Y33	Z33	X34	Y34	Z34	X35	Y35	Z35	X36	Y36	Z36	X37	Y37	Z37	X38	Y38	Z38	X39	Y39	Z39	X40	Y40	Z40	X41	Y41	Z41	X42	Y42	Z42	X43	Y43	Z43	X44	Y44	Z44	X45	Y45	Z45	X46	Y46	Z46	X47	Y47	Z47	X48	Y48	Z48	X49	Y49	Z49	X50	Y50	Z50	X51	Y51	Z51	X52	Y52	Z52	X53	Y53	Z53	

57	0.5600000000000001	-1859.962036132812	967.408447265625	-568.742431640625	-1793.529296875	969.8919067382812	-694.1799926757812	-1821.407836914062	1064.27880859375	-607.8644409179688	-1568.225463867188	1257.771362304688	-502.8508605957031	-1835.238647460938	1189.508544921875	-617.5718994140625	-1771.478759765625	1457.362060546875	-581.329345703125	-1596.766723632812	1372.046020507812	-523.4840698242188	-1870.714111328125	1341.606811523438	-518.7445678710938	-1766.88037109375	1408.018920898438	-683.6951293945312	-1640.662353515625	1427.081420898438	-721.5438232421875	-1617.6328125	1311.033935546875	-817.2830810546875	-1585.857788085938	1098.651000976562	-852.9779052734375	-1683.324096679688	1085.360473632812	-824.307861328125	-1526.334838867188	902.784423828125	-789.7362060546875	-1548.762451171875	881.902587890625	-858.5634765625	-1561.665283203125	1012.143127441406	-857.600830078125	-1499.799072265625	739.7556762695312	-776.1949462890625	-1531.758544921875	801.2772827148438	-850.2674560546875	-1494.595703125	820.1546630859375	-789.1907958984375	-1772.75341796875	1431.78564453125	-406.1629028320312	-1821.845703125	1373.879272460938	-342.7401123046875	-1850.947143554688	1093.509155273438	-274.6094665527344	-1883.944091796875	1074.944580078125	-331.0429382324219	-1746.79052734375	891.3987426757812	-261.5849609375	-1830.172607421875	876.9132690429688	-237.2145233154297	-1853.1201171875	1035.960815429688	-260.9392700195312	-1744.7861328125	733.6569213867188	-243.8773651123047	-1736.608276367188	793.8491821289062	-237.7783203125	-1812.403442382812	790.4193115234375	-227.2090301513672	-1723.039306640625	1652.157592773438	-473.4904479980469	-1531.708374023438	1660.259399414062	-555.23046875	-1589.61767578125	1661.077026367188	-437.0063781738281	-1659.670166015625	1656.422607421875	-639.5648193359375	-1618.02294921875	867.6202392578125	-734.593017578125	-1820.98681640625	862.907958984375	-394.7785339355469	-1699.276977539062	904.4223022460938	-397.9995422363281	-1566.078735351562	906.2681884765625	-618.918212890625	-1589.520629882812	444.9664001464844	-690.1633911132812	-1569.499145507812	599.314453125	-703.293701171875	-1689.202758789062	34.52009963989258	-749.0906372070312	-1608.564331054688	291.5639343261719	-716.212158203125	-1525.556274414062	48.38901138305664	-579.3773193359375	-1602.423828125	54.02853393554688	-588.2877807617188	-1548.13671875	43.99832153320312	-690.148193359375	-1762.41748046875	34.51757049560547	-728.7945556640625	-1767.847534179688	470.2484436035156	-400.72705078125	-1785.402465820312	728.8057861328125	-362.3776245117188	-1817.2978515625	41.82818984985352	-426.64990234375	-1777.38427734375	325.4757995605469	-390.4781799316406	-1604.02978515625	49.52860641479492	-372.0263366699219	-1644.16455078125	56.59754943847656	-431.1086730957031	-1708.60302734375	47.78204345703125	-343.7833557128906	-1854.9130859375	34.01616668701172	-499.5588684082031	
58	0.5700000000000001	-1860.039306640625	967.4966430664062	-568.6447143554688	-1793.557495117188	969.8660278320312	-694.0969848632812	-1821.520385742188	1064.287963867188	-607.7462158203125	-1568.415283203125	1257.84130859375	-502.7455749511719	-1835.374267578125	1189.480224609375	-617.4990234375	-1771.73583984375	1457.367919921875	-581.2284545898438	-1596.940307617188	1372.1416015625	-523.4133911132812	-1870.891479492188	1341.561279296875	-518.56689453125	-1767.111328125	1407.966064453125	-683.5985107421875	-1640.91650390625	1427.117309570312	-721.4906616210938	-1617.808471679688	1310.984130859375	-817.2169189453125	-1586.016723632812	1098.4267578125	-852.528076171875	-1683.519409179688	1085.252075195312	-823.92041015625	-1526.917114257812	902.5256958007812	-789.0333862304688	-1549.225708007812	881.6358642578125	-857.9127197265625	-1561.8759765625	1011.865783691406	-857.0104370117188	-1500.8046875	739.4339599609375	-775.5706176757812	-1532.39453125	801.0360107421875	-849.6370849609375	-1495.364013671875	819.7819213867188	-788.4664916992188	-1772.922729492188	1431.853149414062	-406.0878601074219	-1822.005126953125	1373.971313476562	-342.6202392578125	-1850.64404296875	1093.456909179688	-274.3399047851562	-1883.680908203125	1074.822021484375	-330.7019348144531	-1745.744384765625	891.8343505859375	-261.3702697753906	-1829.018676757812	876.963134765625	-236.8685150146484	-1852.66455078125	1035.949340820312	-260.6633911132812	-1742.976440429688	734.0521850585938	-243.5890350341797	-1735.044311523438	794.2705078125	-237.5111389160156	-1810.91064453125	790.6102905273438	-226.8341674804688	-1723.213745117188	1652.230834960938	-473.43994140625	-1531.838012695312	1660.2041015625	-555.1637573242188	-1589.816650390625	1661.056030273438	-436.8973999023438	-1659.833984375	1656.4970703125	-639.4957885742188	-1618.132568359375	867.634033203125	-734.5301513671875	-1821.054077148438	862.9865112304688	-394.6539306640625	-1699.265625	904.510009765625	-397.9007263183594	-1566.1552734375	906.2998046875	-618.8489990234375	-1589.64697265625	444.9766540527344	-690.1292724609375	-1569.740966796875	599.3452758789062	-703.3430786132812	-1689.212524414062	34.52553939819336	-749.122314453125	-1608.631103515625	291.5548400878906	-716.2477416992188	-1525.571533203125	48.39992904663086	-579.3932495117188	-1602.44677734375	54.01788711547852	-588.2868041992188	-1548.127197265625	43.97559356689453	-690.1397705078125	-1762.404907226562	34.49769592285156	-728.811279296875	-1767.986694335938	470.3185424804688	-400.7987060546875	-1785.51171875	728.8719482421875	-362.3064270019531	-1817.299926757812	41.81908798217773	-426.6445617675781	-1777.503784179688	325.5093688964844	-390.529296875	-1604.036987304688	49.53489685058594	-372.0287780761719	-1644.163818359375	56.59661483764648	-431.1124877929688	-1708.60595703125	47.75943756103516	-343.7780151367188	-1854.910766601562	33.99984741210938	-499.5551147460938	
59	0.58	-1860.11767578125	967.5598754882812	-568.5757446289062	-1793.576782226562	969.8345336914062	-694.02197265625	-1821.62939453125	1064.30029296875	-607.6603393554688	-1568.606567382812	1257.892456054688	-502.6680297851562	-1835.520874023438	1189.458374023438	-617.4343872070312	-1771.996215820312	1457.376708984375	-581.1190795898438	-1597.097900390625	1372.238159179688	-523.3572998046875	-1871.064453125	1341.508422851562	-518.3779907226562	-1767.333618164062	1407.918823242188	-683.49755859375	-1641.17138671875	1427.171508789062	-721.445556640625	-1617.949462890625	1310.939453125	-817.172119140625	-1586.133178710938	1098.195068359375	-852.0576782226562	-1683.670166015625	1085.143432617188	-823.4921875	-1527.4384765625	902.2529907226562	-788.3480224609375	-1549.676879882812	881.3858032226562	-857.2756958007812	-1562.089111328125	1011.602233886719	-856.4251708984375	-1501.879638671875	739.1337890625	-775.0552978515625	-1533.011596679688	800.8025512695312	-849.046875	-1496.088623046875	819.4092407226562	-787.7996215820312	-1773.047607421875	1431.896484375	-406.0221862792969	-1822.136596679688	1374.040649414062	-342.4827270507812	-1850.323486328125	1093.381958007812	-274.1040954589844	-1883.3984375	1074.682250976562	-330.3906555175781	-1744.686645507812	892.2537841796875	-261.2088928222656	-1827.855590820312	876.9937744140625	-236.5833282470703	-1852.201782226562	1035.925903320312	-260.4192810058594	-1741.220336914062	734.4013671875	-243.39111328125	-1733.454711914062	794.6166381835938	-237.3230438232422	-1809.401611328125	790.7499389648438	-226.5440368652344	-1723.375854492188	1652.29541015625	-473.4154663085938	-1531.959594726562	1660.167602539062	-555.1092529296875	-1590.010009765625	1661.051025390625	-436.8209533691406	-1659.981079101562	1656.55322265625	-639.4472045898438	-1618.217529296875	867.6390380859375	-734.470458984375	-1821.154541015625	863.0591430664062	-394.555419921875	-1699.248046875	904.6007690429688	-397.8081665039062	-1566.232421875	906.314453125	-618.7922973632812	-1589.756958007812	444.9883422851562	-690.1044921875	-1569.941772460938	599.3607788085938	-703.3764038085938	-1689.21923828125	34.52898025512695	-749.151123046875	-1608.712890625	291.5384826660156	-716.2835693359375	-1525.587890625	48.41003036499023	-579.4067993164062	-1602.466430664062	54.00577926635742	-588.2818603515625	-1548.119018554688	43.95734024047852	-690.132080078125	-1762.39404296875	34.47560882568359	-728.8294067382812	-1768.105224609375	470.3869934082031	-400.8634948730469	-1785.659545898438	728.9426879882812	-362.2601013183594	-1817.302856445312	41.80091094970703	-426.6352233886719	-1777.6298828125	325.5430603027344	-390.5854187011719	-1604.04345703125	49.54055023193359	-372.0286865234375	-1644.162963867188	56.5972900390625	-431.1175842285156	-1708.61083984375	47.73764419555664	-343.7744445800781	-1854.907958984375	33.98423004150391	-499.5509948730469	
60	0.59	-1860.201782226562	967.5972290039062	-568.5391235351562	-1793.59228515625	969.7992553710938	-693.9599609375	-1821.72998046875	1064.31201171875	-607.6092529296875	-1568.795654296875	1257.9296875	-502.6169738769531	-1835.680297851562	1189.43994140625	-617.376708984375	-1772.250122070312	1457.385864257812	-581.0028076171875	-1597.240356445312	1372.333129882812	-523.3129272460938	-1871.239135742188	1341.44873046875	-518.1783447265625	-1767.537841796875	1407.8720703125	-683.3950805664062	-1641.416870117188	1427.245483398438	-721.4075317382812	-1618.052001953125	1310.898193359375	-817.1446533203125	-1586.205688476562	1097.955078125	-851.55908203125	-1683.785278320312	1085.043823242188	-823.0260009765625	-1527.902465820312	901.9679565429688	-787.6768188476562	-1550.11865234375	881.151123046875	-856.6412963867188	-1562.312744140625	1011.354919433594	-855.8425903320312	-1502.937744140625	738.8502807617188	-774.6094360351562	-1533.615966796875	800.5740966796875	-848.4911499023438	-1496.75927734375	819.0360717773438	-787.1819458007812	-1773.135375976562	1431.915649414062	-405.9604187011719	-1822.23486328125	1374.08349609375	-342.3201904296875	-1849.981689453125	1093.286987304688	-273.8960266113281	-1883.093383789062	1074.518310546875	-330.10498046875	-1743.6259765625	892.6415405273438	-261.0985412597656	-1826.6875	877.005859375	-236.3609008789062	-1851.719848632812	1035.888549804688	-260.2044982910156	-1739.527465820312	734.7059326171875	-243.2696228027344	-1731.87060546875	794.9012451171875	-237.1997375488281	-1807.880981445312	790.8351440429688	-226.3343200683594	-1723.53173828125	1652.35107421875	-473.412841796875	-1532.087768554688	1660.150146484375	-555.061279296875	-1590.195556640625	1661.0625	-436.7757568359375	-1660.113525390625	1656.590698242188	-639.4178466796875	-1618.281005859375	867.6380004882812	-734.4117431640625	-1821.29150390625	863.1220092773438	-394.4810485839844	-1699.235717773438	904.6898803710938	-397.7232666015625	-1566.302734375	906.31396484375	-618.7445068359375	-1589.856689453125	445.0013122558594	-690.0892944335938	-1570.109985351562	599.3668212890625	-703.3923950195312	-1689.2216796875	34.52529525756836	-749.1770629882812	-1608.809448242188	291.5169372558594	-716.318359375	-1525.607177734375	48.4211540222168	-579.4188842773438	-1602.483520507812	53.9932746887207	-588.2747802734375	-1548.114379882812	43.94779586791992	-690.1275024414062	-1762.388061523438	34.45139312744141	-728.8497924804688	-1768.195190429688	470.4515380859375	-400.9183654785156	-1785.84130859375	729.0088500976562	-362.2362365722656	-1817.306396484375	41.77629470825195	-426.6231689453125	-1777.75390625	325.5733337402344	-390.6409912109375	-1604.048583984375	49.5457649230957	-372.0257873535156	-1644.162231445312	56.59986114501953	-431.1238708496094	-1708.616821289062	47.71995162963867	-343.7756652832031	-1854.904663085938	33.96948623657227	-499.5473937988281	
